# Blender 3.5.1
# www.blender.org
mtllib metallic_barrel_with_lod2.mtl
o MetallicBarel.LOD02__0
v 0.227392 -0.008900 -0.227391
v -0.000000 -0.008900 -0.321580
v 0.000000 -0.008900 0.000000
v 0.321580 -0.008900 0.000000
v -0.227391 -0.008900 0.227392
v 0.000000 -0.008900 0.321581
v 0.227392 -0.008900 0.227392
v -0.321580 -0.008900 0.000001
v -0.227392 -0.008900 -0.227391
v 0.000000 -1.076335 -0.203824
v 0.039953 -1.078751 -0.163871
v 0.000000 -1.078751 -0.147322
v -0.056501 -1.078751 -0.203824
v -0.039952 -1.078751 -0.163871
v 0.039953 -1.078751 -0.243776
v 0.000000 -1.078751 -0.260325
v -0.039952 -1.078751 -0.243776
v 0.056502 -1.078751 -0.203824
v -0.000000 -1.049279 -0.351458
v -0.000000 -1.044438 -0.366194
v -0.258938 -1.044438 -0.258938
v -0.248519 -1.049279 -0.248518
v -0.000000 -0.001098 -0.353647
v -0.250066 -0.001098 -0.250066
v -0.234933 -0.001098 -0.234933
v -0.000000 -0.001098 -0.332246
v -0.351458 -1.049279 0.000001
v -0.366194 -1.044438 0.000001
v -0.258938 -1.044438 0.258939
v -0.248518 -1.049279 0.248519
v 0.248519 -1.049279 -0.248518
v 0.258938 -1.044438 -0.258938
v 0.351458 -1.049279 0.000000
v 0.366194 -1.044438 0.000000
v 0.248519 -1.049279 0.248519
v 0.258938 -1.044438 0.258939
v 0.000000 -1.049279 0.351459
v 0.000000 -1.044438 0.366194
v -0.258938 -1.044438 0.258939
v -0.259718 -1.055215 0.259720
v 0.000000 -1.055215 0.367298
v 0.000000 -1.044438 0.366194
v 0.366194 -1.044438 0.000000
v 0.258938 -1.044438 0.258939
v 0.259719 -1.055215 0.259719
v 0.367298 -1.055215 0.000000
v -0.000000 -1.044438 -0.366194
v -0.000000 -1.055215 -0.367298
v -0.259719 -1.055215 -0.259718
v -0.258938 -1.044438 -0.258938
v 0.259719 -1.055215 -0.259718
v 0.258938 -1.044438 -0.258938
v 0.000000 -1.055215 0.367298
v 0.000000 -1.055148 0.356153
v 0.251838 -1.055148 0.251838
v 0.259719 -1.055215 0.259719
v -0.367298 -1.055215 0.000001
v -0.366194 -1.044438 0.000001
v -0.259718 -1.055215 0.259720
v -0.367298 -1.055215 0.000001
v -0.356152 -1.055148 0.000001
v -0.251837 -1.055148 0.251839
v 0.367298 -1.055215 0.000000
v 0.356152 -1.055148 0.000000
v 0.251838 -1.055148 -0.251837
v 0.259719 -1.055215 -0.259718
v 0.000000 -1.055148 0.356153
v 0.000000 -1.055215 0.367298
v -0.000000 -1.055148 -0.356152
v -0.000000 -1.055215 -0.367298
v -0.251838 -1.055148 -0.251837
v -0.259719 -1.055215 -0.259718
v 0.251838 -1.055148 0.251838
v 0.000000 -1.055148 0.356153
v 0.000000 -1.050394 0.344126
v 0.243334 -1.050394 0.243334
v -0.251837 -1.055148 0.251839
v -0.356152 -1.055148 0.000001
v -0.344126 -1.050394 0.000001
v -0.243333 -1.050394 0.243335
v -0.000000 -1.055148 -0.356152
v 0.251838 -1.055148 -0.251837
v 0.243334 -1.050394 -0.243333
v -0.000000 -1.050394 -0.344126
v -0.251838 -1.055148 -0.251837
v -0.243334 -1.050394 -0.243333
v 0.356152 -1.055148 0.000000
v 0.344126 -1.050394 0.000000
v -0.046581 -1.050311 -0.203824
v -0.032938 -1.050311 -0.170886
v 0.032938 -1.050311 -0.236762
v 0.032938 -1.064843 -0.236762
v 0.000000 -1.064843 -0.250405
v 0.000000 -1.050311 -0.250405
v 0.032938 -1.050311 -0.236762
v 0.000000 -1.050311 -0.250405
v 0.000000 -1.050311 -0.157242
v 0.032938 -1.050311 -0.170886
v 0.000000 -1.050311 -0.157242
v -0.032938 -1.050311 -0.170886
v -0.032938 -1.064843 -0.170886
v 0.000000 -1.064843 -0.157242
v -0.032938 -1.050311 -0.236762
v 0.046582 -1.050311 -0.203824
v 0.032938 -1.050311 -0.170886
v 0.032938 -1.064843 -0.170886
v -0.046581 -1.064843 -0.203824
v -0.032938 -1.064843 -0.236762
v -0.039952 -1.064843 -0.243776
v -0.056501 -1.064843 -0.203824
v -0.032938 -1.050311 -0.236762
v -0.032938 -1.064843 -0.236762
v 0.046582 -1.050311 -0.203824
v 0.046582 -1.064843 -0.203824
v -0.046581 -1.050311 -0.203824
v -0.046581 -1.064843 -0.203824
v 0.000000 -1.064843 -0.250405
v 0.000000 -1.064843 -0.260325
v 0.046582 -1.064843 -0.203824
v 0.032938 -1.064843 -0.170886
v 0.039953 -1.064843 -0.163871
v 0.056502 -1.064843 -0.203824
v -0.056501 -1.064843 -0.203824
v -0.039952 -1.064843 -0.243776
v -0.039952 -1.078751 -0.243776
v -0.056501 -1.078751 -0.203824
v 0.032938 -1.064843 -0.236762
v 0.039953 -1.064843 -0.243776
v -0.032938 -1.064843 -0.170886
v -0.039952 -1.064843 -0.163871
v 0.000000 -1.064843 -0.157242
v 0.000000 -1.064843 -0.147322
v 0.039953 -1.064843 -0.243776
v 0.056502 -1.064843 -0.203824
v 0.056502 -1.078751 -0.203824
v 0.039953 -1.078751 -0.243776
v 0.000000 -0.001098 0.353647
v 0.250066 -0.001098 0.250066
v 0.234933 -0.001098 0.234934
v 0.000000 -0.001098 0.332246
v -0.039952 -1.064843 -0.163871
v -0.039952 -1.078751 -0.163871
v 0.000000 -1.064843 -0.260325
v 0.000000 -1.078751 -0.260325
v 0.039953 -1.064843 -0.163871
v 0.000000 -1.064843 -0.147322
v 0.000000 -1.078751 -0.147322
v 0.039953 -1.078751 -0.163871
v 0.353647 -0.001098 0.000000
v 0.332246 -0.001098 0.000000
v 0.250066 -0.001098 -0.250066
v 0.234933 -0.001098 -0.234933
v -0.353647 -0.001098 0.000001
v -0.250066 -0.001098 0.250067
v -0.234933 -0.001098 0.234934
v -0.332246 -0.001098 0.000001
v 0.000000 -1.044438 0.366194
v 0.000000 -1.049279 0.351459
v 0.254902 -0.003896 0.254902
v 0.248519 -1.049279 0.248519
v 0.351458 -1.049279 0.000000
v 0.360486 -0.003896 0.000000
v 0.000000 -0.003896 0.360486
v 0.254902 -0.003896 0.254902
v 0.000000 -0.001098 0.332246
v 0.000000 -0.008900 0.321581
v -0.227391 -0.008900 0.227392
v -0.234933 -0.001098 0.234934
v 0.234933 -0.001098 -0.234933
v -0.000000 -0.001098 -0.332246
v -0.000000 -0.008900 -0.321580
v 0.227392 -0.008900 -0.227391
v 0.234933 -0.001098 0.234934
v 0.227392 -0.008900 0.227392
v 0.248519 -1.049279 -0.248518
v 0.254902 -0.003896 -0.254901
v 0.360486 -0.003896 0.000000
v -0.000000 -1.049279 -0.351458
v -0.000000 -0.003896 -0.360485
v 0.254902 -0.003896 -0.254901
v -0.248519 -1.049279 -0.248518
v -0.254902 -0.003896 -0.254901
v -0.000000 -0.003896 -0.360485
v -0.351458 -1.049279 0.000001
v -0.360485 -0.003896 0.000001
v -0.254902 -0.003896 -0.254901
v -0.248518 -1.049279 0.248519
v -0.254901 -0.003896 0.254902
v -0.360485 -0.003896 0.000001
v 0.000000 -1.049279 0.351459
v 0.000000 -0.003896 0.360486
v -0.254901 -0.003896 0.254902
v 0.000000 -0.003896 0.360486
v 0.000000 -1.049279 0.351459
v -0.234933 -0.001098 -0.234933
v -0.332246 -0.001098 0.000001
v -0.321580 -0.008900 0.000001
v -0.227392 -0.008900 -0.227391
v 0.332246 -0.001098 0.000000
v 0.321580 -0.008900 0.000000
v 0.000000 -1.044438 0.366194
v 0.000000 -1.055215 0.367298
vn -0.0000 1.0000 -0.0000
vn -0.0000 -1.0000 -0.0000
vn -0.0302 -0.9991 -0.0302
vn -0.0000 -0.9991 -0.0427
vn 0.0427 -0.9991 -0.0000
vn 0.0302 -0.9991 -0.0302
vn -0.0302 -0.9991 0.0302
vn -0.0000 -0.9991 0.0427
vn 0.0302 -0.9991 0.0302
vn -0.0427 -0.9991 -0.0000
vn -0.0000 0.9500 0.3121
vn 0.2207 0.9500 0.2207
vn -0.0000 0.9712 -0.2384
vn -0.1686 0.9712 -0.1686
vn 0.3121 0.9500 -0.0000
vn 0.2207 0.9500 -0.2207
vn -0.2207 0.9500 0.2207
vn -0.3121 0.9500 -0.0000
vn -0.2207 0.9500 -0.2207
vn -0.0000 0.9500 -0.3121
vn -0.7034 0.1019 0.7034
vn -0.0000 0.1019 0.9948
vn 0.9948 0.1019 -0.0000
vn 0.7034 0.1019 0.7034
vn -0.0000 0.1019 -0.9948
vn -0.7034 0.1019 -0.7034
vn 0.7034 0.1019 -0.7034
vn -0.0000 -1.0000 -0.0060
vn -0.0000 -0.9894 -0.1450
vn -0.1026 -0.9894 -0.1026
vn -0.0043 -1.0000 -0.0042
vn -0.9948 0.1019 -0.0000
vn 0.0043 -1.0000 -0.0042
vn 0.0060 -1.0000 -0.0000
vn 0.1450 -0.9894 -0.0000
vn 0.1025 -0.9894 -0.1025
vn -0.0060 -1.0000 -0.0000
vn -0.1450 -0.9894 -0.0000
vn -0.1026 -0.9894 0.1026
vn -0.0043 -1.0000 0.0042
vn -0.0000 -0.9894 0.1450
vn -0.0000 -1.0000 0.0060
vn 0.1025 -0.9894 0.1025
vn 0.0043 -1.0000 0.0043
vn -0.1026 -0.9894 -0.1025
vn -0.0000 -0.9729 -0.2314
vn -0.1636 -0.9729 -0.1636
vn 0.1025 -0.9894 -0.1026
vn 0.2314 -0.9729 -0.0000
vn 0.1636 -0.9729 -0.1636
vn -0.1026 -0.9894 0.1025
vn -0.1637 -0.9728 0.1637
vn -0.0000 -0.9728 0.2317
vn 0.1026 -0.9894 0.1025
vn 0.1637 -0.9728 0.1637
vn -0.2314 -0.9729 -0.0000
vn 0.0003 -1.0000 0.0001
vn 0.0002 -1.0000 -0.0001
vn 0.7071 -0.0000 -0.7071
vn -0.0000 -0.0000 -1.0000
vn -0.0004 -1.0000 0.0007
vn -0.0000 -1.0000 0.0009
vn -0.0000 -1.0000 -0.0002
vn -0.0002 -1.0000 -0.0001
vn -0.0000 -0.0000 1.0000
vn -0.7071 -0.0000 0.7071
vn 0.0004 -1.0000 0.0007
vn -0.0003 -1.0000 0.0001
vn 0.7071 -0.0000 0.7071
vn -0.7071 -0.0000 -0.7071
vn 1.0000 -0.0000 -0.0000
vn -1.0000 -0.0000 -0.0000
vn -0.0000 0.9712 0.2384
vn 0.1686 0.9712 0.1686
vn 0.2384 0.9712 -0.0000
vn 0.1686 0.9712 -0.1686
vn -0.2384 0.9712 -0.0000
vn -0.1686 0.9712 0.1686
vn 0.7071 -0.0086 0.7071
vn 1.0000 -0.0086 -0.0000
vn -0.0000 0.9255 0.3787
vn 0.2678 0.9255 0.2678
vn -0.0000 0.8071 -0.5904
vn 0.4175 0.8071 -0.4175
vn -0.4175 0.8071 0.4175
vn -0.0000 0.8071 0.5904
vn -0.4175 0.8071 -0.4175
vn 0.7071 -0.0086 -0.7071
vn 0.3787 0.9255 -0.0000
vn -0.0000 -0.0086 -1.0000
vn 0.2678 0.9255 -0.2678
vn -0.7071 -0.0086 -0.7071
vn -0.0000 0.9255 -0.3787
vn -1.0000 -0.0086 -0.0000
vn -0.2678 0.9255 -0.2678
vn -0.7071 -0.0086 0.7071
vn -0.3787 0.9255 -0.0000
vn -0.0000 -0.0086 1.0000
vn -0.2678 0.9255 0.2678
vn 0.4175 0.8071 0.4175
vn 0.5904 0.8071 -0.0000
vn -0.5904 0.8071 -0.0000
vt 0.239503 0.084252
vt 0.129109 0.073404
vt 0.171200 0.212128
vt 0.309938 0.170016
vt 0.102863 0.339987
vt 0.213290 0.350867
vt 0.299071 0.280471
vt 0.032476 0.254217
vt 0.043338 0.143812
vt 0.725452 0.220653
vt 0.782014 0.215082
vt 0.761508 0.176718
vt 0.681517 0.184597
vt 0.719881 0.164091
vt 0.731023 0.277215
vt 0.689396 0.264588
vt 0.668890 0.226224
vt 0.769386 0.256709
vt 0.498387 0.429820
vt 0.498387 0.421157
vt 0.376300 0.421157
vt 0.376300 0.429820
vt 0.124550 0.058383
vt 0.029488 0.136415
vt 0.038057 0.140984
vt 0.127376 0.067672
vt 0.254212 0.429820
vt 0.254212 0.421157
vt 0.132125 0.421157
vt 0.132125 0.429820
vt 0.620474 0.429820
vt 0.620474 0.421157
vt 0.742561 0.429820
vt 0.742561 0.421157
vt 0.864649 0.429820
vt 0.864649 0.421157
vt 0.986736 0.429820
vt 0.986736 0.421157
vt 0.132125 0.421157
vt 0.132125 0.414431
vt 0.010038 0.414431
vt 0.010038 0.421157
vt 0.742561 0.421157
vt 0.864649 0.421157
vt 0.864649 0.414431
vt 0.742561 0.414431
vt 0.498387 0.421157
vt 0.498387 0.414431
vt 0.376300 0.414431
vt 0.376300 0.421157
vt 0.620474 0.414431
vt 0.620474 0.421157
vt 0.986736 0.414431
vt 0.986736 0.408063
vt 0.864649 0.408063
vt 0.864649 0.414431
vt 0.254212 0.414431
vt 0.254212 0.421157
vt 0.132125 0.414431
vt 0.254212 0.414431
vt 0.254212 0.408063
vt 0.132125 0.408063
vt 0.742561 0.414431
vt 0.742561 0.408063
vt 0.620474 0.408063
vt 0.620474 0.414431
vt 0.010038 0.408063
vt 0.010038 0.414431
vt 0.498387 0.408063
vt 0.498387 0.414431
vt 0.376300 0.408063
vt 0.376300 0.414431
vt 0.603385 0.341440
vt 0.661463 0.232682
vt 0.655642 0.232106
vt 0.599673 0.336918
vt 0.625700 0.114690
vt 0.516980 0.056486
vt 0.516400 0.062310
vt 0.621174 0.118397
vt 0.340633 0.201113
vt 0.376539 0.319276
vt 0.381065 0.315558
vt 0.346466 0.201690
vt 0.398882 0.092215
vt 0.402592 0.096747
vt 0.485408 0.377338
vt 0.485978 0.371513
vt 0.411661 0.186931
vt 0.425880 0.194534
vt 0.896751 0.327813
vt 0.901921 0.313997
vt 0.864921 0.303892
vt 0.862559 0.318614
vt 0.393306 0.221274
vt 0.388619 0.205837
vt 0.430560 0.209962
vt 0.422963 0.224185
vt 0.722108 0.355028
vt 0.754857 0.334612
vt 0.747939 0.320283
vt 0.712102 0.342052
vt 0.396225 0.191610
vt 0.407535 0.228871
vt 0.954549 0.363650
vt 0.963761 0.353726
vt 0.786422 0.306735
vt 0.825952 0.301319
vt 0.825562 0.291310
vt 0.783977 0.296792
vt 0.826625 0.316522
vt 0.825952 0.301319
vt 0.927765 0.343377
vt 0.935304 0.331293
vt 0.790218 0.321818
vt 0.786422 0.306735
vt 0.864921 0.303892
vt 0.866504 0.294218
vt 0.935304 0.331293
vt 0.963761 0.353726
vt 0.970180 0.347563
vt 0.940569 0.323174
vt 0.783977 0.296792
vt 0.825562 0.291310
vt 0.825318 0.277879
vt 0.780976 0.283391
vt 0.901921 0.313997
vt 0.905335 0.305141
vt 0.747939 0.320283
vt 0.743447 0.310821
vt 0.712102 0.342052
vt 0.705508 0.333208
vt 0.905335 0.305141
vt 0.940569 0.323174
vt 0.947658 0.312687
vt 0.910224 0.293121
vt 0.217848 0.365891
vt 0.312921 0.287872
vt 0.304352 0.283301
vt 0.215022 0.356601
vt 0.743447 0.310821
vt 0.737699 0.298005
vt 0.866504 0.294218
vt 0.868895 0.281282
vt 0.970180 0.347563
vt 0.705508 0.333208
vt 0.697074 0.321388
vt 0.978909 0.339096
vt 0.324962 0.165452
vt 0.315672 0.168282
vt 0.246894 0.070400
vt 0.242329 0.078971
vt 0.017454 0.258776
vt 0.095463 0.353834
vt 0.100034 0.345267
vt 0.026743 0.255950
vt 0.010038 0.421157
vt 0.010038 0.429820
vt 0.864649 0.987773
vt 0.864649 0.429820
vt 0.742561 0.429820
vt 0.742561 0.987773
vt 0.218824 0.369112
vt 0.315888 0.289460
vt 0.215022 0.356601
vt 0.213290 0.350867
vt 0.102863 0.339987
vt 0.100034 0.345267
vt 0.242329 0.078971
vt 0.127376 0.067672
vt 0.129109 0.073404
vt 0.239503 0.084252
vt 0.304352 0.283301
vt 0.299071 0.280471
vt 0.620474 0.429820
vt 0.620474 0.987773
vt 0.328178 0.164475
vt 0.498387 0.429820
vt 0.498387 0.987773
vt 0.248477 0.067430
vt 0.376300 0.429820
vt 0.376300 0.987773
vt 0.123575 0.055162
vt 0.254212 0.429820
vt 0.254212 0.987773
vt 0.026514 0.134827
vt 0.132125 0.429820
vt 0.132125 0.987773
vt 0.014233 0.259751
vt 0.010038 0.429820
vt 0.010038 0.987773
vt 0.093875 0.356801
vt 0.986736 0.987773
vt 0.986736 0.429820
vt 0.038057 0.140984
vt 0.026743 0.255950
vt 0.032476 0.254217
vt 0.043338 0.143812
vt 0.315672 0.168282
vt 0.309938 0.170016
vt 0.986736 0.421157
vt 0.986736 0.414431
s 0
usemtl Scene_-_Root.002
f 1/1/1 2/2/1 3/3/1
f 4/4/1 1/1/1 3/3/1
f 5/5/1 6/6/1 3/3/1
f 4/4/1 3/3/1 7/7/1
f 8/8/1 5/5/1 3/3/1
f 9/9/1 8/8/1 3/3/1
f 7/7/1 3/3/1 6/6/1
f 2/2/1 9/9/1 3/3/1
s 1
f 10/10/2 11/11/3 12/12/4
f 13/13/5 10/10/2 14/14/6
f 15/15/7 10/10/2 16/16/8
f 10/10/2 12/12/4 14/14/6
f 10/10/2 17/17/9 16/16/8
f 10/10/2 18/18/10 11/11/3
f 10/10/2 13/13/5 17/17/9
f 10/10/2 15/15/7 18/18/10
f 19/19/11 20/20/11 21/21/12
f 19/19/11 21/21/12 22/22/12
f 23/23/13 24/24/14 25/25/1
f 23/23/13 25/25/1 26/26/1
f 27/27/15 28/28/15 29/29/16
f 27/27/15 29/29/16 30/30/16
f 31/31/17 32/32/17 20/20/11
f 31/31/17 20/20/11 19/19/11
f 22/22/12 21/21/12 28/28/15
f 22/22/12 28/28/15 27/27/15
f 33/33/18 34/34/18 32/32/17
f 33/33/18 32/32/17 31/31/17
f 35/35/19 36/36/19 34/34/18
f 35/35/19 34/34/18 33/33/18
f 37/37/20 38/38/20 36/36/19
f 37/37/20 36/36/19 35/35/19
f 39/39/21 40/40/21 41/41/22
f 39/39/21 41/41/22 42/42/22
f 43/43/23 44/44/24 45/45/24
f 43/43/23 45/45/24 46/46/23
f 47/47/25 48/48/25 49/49/26
f 47/47/25 49/49/26 50/50/26
f 43/43/23 46/46/23 51/51/27
f 43/43/23 51/51/27 52/52/27
f 53/53/28 54/54/29 55/55/30
f 53/53/28 55/55/30 56/56/31
f 50/50/26 49/49/26 57/57/32
f 50/50/26 57/57/32 58/58/32
f 58/58/32 57/57/32 40/40/21
f 58/58/32 40/40/21 39/39/21
f 52/52/27 51/51/27 48/48/25
f 52/52/27 48/48/25 47/47/25
f 59/59/33 60/60/34 61/61/35
f 59/59/33 61/61/35 62/62/36
f 63/63/37 64/64/38 65/65/39
f 63/63/37 65/65/39 66/66/40
f 59/59/33 62/62/36 67/67/29
f 59/59/33 67/67/29 68/68/28
f 66/66/40 65/65/39 69/69/41
f 66/66/40 69/69/41 70/70/42
f 70/70/42 69/69/41 71/71/43
f 70/70/42 71/71/43 72/72/44
f 56/56/31 55/55/30 64/64/38
f 56/56/31 64/64/38 63/63/37
f 72/72/44 71/71/43 61/61/35
f 72/72/44 61/61/35 60/60/34
f 73/73/45 74/74/29 75/75/46
f 73/73/45 75/75/46 76/76/47
f 77/77/48 78/78/35 79/79/49
f 77/77/48 79/79/49 80/80/50
f 81/81/41 82/82/51 83/83/52
f 81/81/41 83/83/52 84/84/53
f 74/74/29 77/77/48 80/80/50
f 74/74/29 80/80/50 75/75/46
f 85/85/54 81/81/41 84/84/53
f 85/85/54 84/84/53 86/86/55
f 87/87/38 73/73/45 76/76/47
f 87/87/38 76/76/47 88/88/56
f 78/78/35 85/85/54 86/86/55
f 78/78/35 86/86/55 79/79/49
f 82/82/51 87/87/38 88/88/56
f 82/82/51 88/88/56 83/83/52
f 89/89/57 90/90/58 80/80/50
f 89/89/57 80/80/50 79/79/49
f 91/91/59 92/92/59 93/93/60
f 91/91/59 93/93/60 94/94/60
f 95/95/61 96/96/62 84/84/53
f 95/95/61 84/84/53 83/83/52
f 97/97/63 98/98/64 76/76/47
f 97/97/63 76/76/47 75/75/46
f 99/99/65 100/100/66 101/101/66
f 99/99/65 101/101/66 102/102/65
f 90/90/58 97/97/63 75/75/46
f 90/90/58 75/75/46 80/80/50
f 96/96/62 103/103/67 86/86/55
f 96/96/62 86/86/55 84/84/53
f 98/98/64 104/104/68 88/88/56
f 98/98/64 88/88/56 76/76/47
f 103/103/67 89/89/57 79/79/49
f 103/103/67 79/79/49 86/86/55
f 104/104/68 95/95/61 83/83/52
f 104/104/68 83/83/52 88/88/56
f 105/105/69 99/99/65 102/102/65
f 105/105/69 102/102/65 106/106/69
s 0
f 107/107/1 108/108/1 109/109/1
f 107/107/1 109/109/1 110/110/1
s 1
f 111/111/70 94/94/60 93/93/60
f 111/111/70 93/93/60 112/112/70
f 113/113/71 105/105/69 106/106/69
f 113/113/71 106/106/69 114/114/71
f 115/115/72 111/111/70 112/112/70
f 115/115/72 112/112/70 116/116/72
f 91/91/59 113/113/71 114/114/71
f 91/91/59 114/114/71 92/92/59
f 100/100/66 115/115/72 116/116/72
f 100/100/66 116/116/72 101/101/66
s 0
f 108/108/1 117/117/1 118/118/1
f 108/108/1 118/118/1 109/109/1
f 119/119/1 120/120/1 121/121/1
f 119/119/1 121/121/1 122/122/1
s 1
f 123/123/72 124/124/70 125/125/70
f 123/123/72 125/125/70 126/126/72
s 0
f 127/127/1 119/119/1 122/122/1
f 127/127/1 122/122/1 128/128/1
f 129/129/1 107/107/1 110/110/1
f 129/129/1 110/110/1 130/130/1
f 117/117/1 127/127/1 128/128/1
f 117/117/1 128/128/1 118/118/1
f 120/120/1 131/131/1 132/132/1
f 120/120/1 132/132/1 121/121/1
f 129/129/1 130/130/1 132/132/1
f 129/129/1 132/132/1 131/131/1
s 1
f 133/133/59 134/134/71 135/135/71
f 133/133/59 135/135/71 136/136/59
f 137/137/73 138/138/74 139/139/1
f 137/137/73 139/139/1 140/140/1
f 141/141/66 123/123/72 126/126/72
f 141/141/66 126/126/72 142/142/66
f 143/143/60 133/133/59 136/136/59
f 143/143/60 136/136/59 144/144/60
f 145/145/69 146/146/65 147/147/65
f 145/145/69 147/147/65 148/148/69
f 146/146/65 141/141/66 142/142/66
f 146/146/65 142/142/66 147/147/65
f 124/124/70 143/143/60 144/144/60
f 124/124/70 144/144/60 125/125/70
f 145/145/69 148/148/69 135/135/71
f 145/145/69 135/135/71 134/134/71
f 138/138/74 149/149/75 150/150/1
f 138/138/74 150/150/1 139/139/1
f 149/149/75 151/151/76 152/152/1
f 149/149/75 152/152/1 150/150/1
f 153/153/77 154/154/78 155/155/1
f 153/153/77 155/155/1 156/156/1
f 30/30/16 29/29/16 157/157/20
f 30/30/16 157/157/20 158/158/20
f 24/24/14 153/153/77 156/156/1
f 24/24/14 156/156/1 25/25/1
f 159/159/79 160/160/79 161/161/80
f 159/159/79 161/161/80 162/162/80
f 163/163/81 164/164/82 138/138/74
f 163/163/81 138/138/74 137/137/73
f 165/165/83 166/166/83 167/167/84
f 165/165/83 167/167/84 168/168/84
f 169/169/85 170/170/86 171/171/86
f 169/169/85 171/171/86 172/172/85
f 165/165/83 173/173/87 174/174/87
f 165/165/83 174/174/87 166/166/83
f 162/162/80 161/161/80 175/175/88
f 162/162/80 175/175/88 176/176/88
f 164/164/82 177/177/89 149/149/75
f 164/164/82 149/149/75 138/138/74
f 176/176/88 175/175/88 178/178/90
f 176/176/88 178/178/90 179/179/90
f 177/177/89 180/180/91 151/151/76
f 177/177/89 151/151/76 149/149/75
f 181/181/92 182/182/92 179/179/90
f 181/181/92 179/179/90 178/178/90
f 180/180/91 183/183/93 23/23/13
f 180/180/91 23/23/13 151/151/76
f 182/182/92 181/181/92 184/184/94
f 182/182/92 184/184/94 185/185/94
f 183/183/93 186/186/95 24/24/14
f 183/183/93 24/24/14 23/23/13
f 187/187/96 188/188/96 185/185/94
f 187/187/96 185/185/94 184/184/94
f 186/186/95 189/189/97 153/153/77
f 186/186/95 153/153/77 24/24/14
f 190/190/98 191/191/98 188/188/96
f 190/190/98 188/188/96 187/187/96
f 189/189/97 192/192/99 154/154/78
f 189/189/97 154/154/78 153/153/77
f 192/192/99 163/163/81 137/137/73
f 192/192/99 137/137/73 154/154/78
f 193/193/98 194/194/98 160/160/79
f 193/193/98 160/160/79 159/159/79
f 151/151/76 23/23/13 26/26/1
f 151/151/76 26/26/1 152/152/1
f 195/195/100 196/196/101 197/197/101
f 195/195/100 197/197/101 198/198/100
f 196/196/101 168/168/84 167/167/84
f 196/196/101 167/167/84 197/197/101
f 170/170/86 195/195/100 198/198/100
f 170/170/86 198/198/100 171/171/86
f 199/199/102 200/200/102 174/174/87
f 199/199/102 174/174/87 173/173/87
f 199/199/102 169/169/85 172/172/85
f 199/199/102 172/172/85 200/200/102
f 154/154/78 137/137/73 140/140/1
f 154/154/78 140/140/1 155/155/1
f 201/201/22 202/202/22 45/45/24
f 201/201/22 45/45/24 44/44/24
